<mxfile host="65bd71144e" modified="2021-01-09T17:32:04.342Z" agent="5.0 (Windows NT 10.0; Win64; x64) AppleWebKit/537.36 (KHTML, like Gecko) Code/1.52.1 Chrome/83.0.4103.122 Electron/9.3.5 Safari/537.36" etag="ZCSKJOVY7nDD6abRymEp" version="13.10.0" type="embed">
    <diagram id="I3wex4niQxwdPpj7cyRc" name="Page-1">
        <mxGraphModel dx="825" dy="479" grid="1" gridSize="10" guides="1" tooltips="1" connect="1" arrows="1" fold="1" page="1" pageScale="1" pageWidth="827" pageHeight="1169" math="0" shadow="0">
            <root>
                <mxCell id="0"/>
                <mxCell id="1" parent="0"/>
                <mxCell id="1wxJ6Ee9MIY7df9GgSbu-2" value="Invoices" style="rounded=0;arcSize=10;whiteSpace=wrap;html=1;align=center;" parent="1" vertex="1">
                    <mxGeometry x="440" y="140" width="100" height="40" as="geometry"/>
                </mxCell>
                <mxCell id="1wxJ6Ee9MIY7df9GgSbu-3" value="Color" style="ellipse;whiteSpace=wrap;html=1;align=center;" parent="1" vertex="1">
                    <mxGeometry x="220" y="320" width="100" height="40" as="geometry"/>
                </mxCell>
                <mxCell id="1wxJ6Ee9MIY7df9GgSbu-6" value="Offer" style="rounded=0;arcSize=10;whiteSpace=wrap;html=1;align=center;" parent="1" vertex="1">
                    <mxGeometry x="230" y="140" width="100" height="40" as="geometry"/>
                </mxCell>
                <mxCell id="1wxJ6Ee9MIY7df9GgSbu-10" value="&lt;span lang=&quot;PL&quot; style=&quot;font-size: 11.0pt ; line-height: 107% ; font-family: &amp;#34;calibri&amp;#34; , sans-serif&quot;&gt;Product&lt;/span&gt;" style="rounded=0;arcSize=10;whiteSpace=wrap;html=1;align=center;" parent="1" vertex="1">
                    <mxGeometry x="340" y="250" width="100" height="40" as="geometry"/>
                </mxCell>
                <mxCell id="1wxJ6Ee9MIY7df9GgSbu-12" value="Clients" style="rounded=0;arcSize=10;whiteSpace=wrap;html=1;align=center;" parent="1" vertex="1">
                    <mxGeometry x="685" y="140" width="100" height="40" as="geometry"/>
                </mxCell>
                <mxCell id="1wxJ6Ee9MIY7df9GgSbu-17" value="" style="endArrow=none;html=1;rounded=0;exitX=0.25;exitY=1;exitDx=0;exitDy=0;entryX=0.5;entryY=0;entryDx=0;entryDy=0;" parent="1" source="1wxJ6Ee9MIY7df9GgSbu-10" target="1wxJ6Ee9MIY7df9GgSbu-3" edge="1">
                    <mxGeometry relative="1" as="geometry">
                        <mxPoint x="340" y="270" as="sourcePoint"/>
                        <mxPoint x="500" y="270" as="targetPoint"/>
                    </mxGeometry>
                </mxCell>
                <mxCell id="1wxJ6Ee9MIY7df9GgSbu-18" value="" style="endArrow=none;html=1;rounded=0;exitX=0.5;exitY=1;exitDx=0;exitDy=0;entryX=0.5;entryY=0;entryDx=0;entryDy=0;" parent="1" source="1wxJ6Ee9MIY7df9GgSbu-10" target="1wxJ6Ee9MIY7df9GgSbu-30" edge="1">
                    <mxGeometry relative="1" as="geometry">
                        <mxPoint x="322.5" y="360" as="sourcePoint"/>
                        <mxPoint x="354.64466094067166" y="385.8578643762686" as="targetPoint"/>
                    </mxGeometry>
                </mxCell>
                <mxCell id="1wxJ6Ee9MIY7df9GgSbu-19" value="" style="endArrow=none;html=1;rounded=0;exitX=0.75;exitY=1;exitDx=0;exitDy=0;entryX=0.5;entryY=0;entryDx=0;entryDy=0;" parent="1" source="1wxJ6Ee9MIY7df9GgSbu-10" target="1wxJ6Ee9MIY7df9GgSbu-31" edge="1">
                    <mxGeometry relative="1" as="geometry">
                        <mxPoint x="385" y="360" as="sourcePoint"/>
                        <mxPoint x="465" y="360" as="targetPoint"/>
                    </mxGeometry>
                </mxCell>
                <mxCell id="1wxJ6Ee9MIY7df9GgSbu-28" value="" style="edgeStyle=entityRelationEdgeStyle;fontSize=12;html=1;endArrow=ERoneToMany;startArrow=ERoneToMany;exitX=1;exitY=0.5;exitDx=0;exitDy=0;entryX=0;entryY=0.5;entryDx=0;entryDy=0;startFill=0;" parent="1" source="1wxJ6Ee9MIY7df9GgSbu-2" target="1wxJ6Ee9MIY7df9GgSbu-12" edge="1">
                    <mxGeometry width="100" height="100" relative="1" as="geometry">
                        <mxPoint x="610" y="190" as="sourcePoint"/>
                        <mxPoint x="600" y="230" as="targetPoint"/>
                    </mxGeometry>
                </mxCell>
                <mxCell id="1wxJ6Ee9MIY7df9GgSbu-30" value="Brand" style="ellipse;whiteSpace=wrap;html=1;align=center;" parent="1" vertex="1">
                    <mxGeometry x="340" y="320" width="100" height="40" as="geometry"/>
                </mxCell>
                <mxCell id="1wxJ6Ee9MIY7df9GgSbu-31" value="Coverage level" style="ellipse;whiteSpace=wrap;html=1;align=center;" parent="1" vertex="1">
                    <mxGeometry x="460" y="320" width="100" height="40" as="geometry"/>
                </mxCell>
                <mxCell id="1wxJ6Ee9MIY7df9GgSbu-32" value="Price per unit" style="ellipse;whiteSpace=wrap;html=1;align=center;" parent="1" vertex="1">
                    <mxGeometry x="170" y="60" width="100" height="40" as="geometry"/>
                </mxCell>
                <mxCell id="1wxJ6Ee9MIY7df9GgSbu-33" value="Units in stock" style="ellipse;whiteSpace=wrap;html=1;align=center;" parent="1" vertex="1">
                    <mxGeometry x="290" y="60" width="100" height="40" as="geometry"/>
                </mxCell>
                <mxCell id="1wxJ6Ee9MIY7df9GgSbu-34" value="" style="endArrow=none;html=1;rounded=0;entryX=0.25;entryY=0;entryDx=0;entryDy=0;exitX=0.5;exitY=1;exitDx=0;exitDy=0;" parent="1" source="1wxJ6Ee9MIY7df9GgSbu-32" target="1wxJ6Ee9MIY7df9GgSbu-6" edge="1">
                    <mxGeometry relative="1" as="geometry">
                        <mxPoint x="125" y="210" as="sourcePoint"/>
                        <mxPoint x="285" y="210" as="targetPoint"/>
                    </mxGeometry>
                </mxCell>
                <mxCell id="1wxJ6Ee9MIY7df9GgSbu-35" value="" style="endArrow=none;html=1;rounded=0;entryX=0.75;entryY=0;entryDx=0;entryDy=0;exitX=0.5;exitY=1;exitDx=0;exitDy=0;" parent="1" source="1wxJ6Ee9MIY7df9GgSbu-33" target="1wxJ6Ee9MIY7df9GgSbu-6" edge="1">
                    <mxGeometry relative="1" as="geometry">
                        <mxPoint x="340" y="100" as="sourcePoint"/>
                        <mxPoint x="355" y="140" as="targetPoint"/>
                    </mxGeometry>
                </mxCell>
                <mxCell id="1wxJ6Ee9MIY7df9GgSbu-36" value="" style="fontSize=12;html=1;endArrow=ERzeroToOne;startArrow=ERmandOne;entryX=0.5;entryY=1;entryDx=0;entryDy=0;exitX=0.25;exitY=0;exitDx=0;exitDy=0;startFill=0;edgeStyle=orthogonalEdgeStyle;curved=1;" parent="1" source="1wxJ6Ee9MIY7df9GgSbu-10" target="1wxJ6Ee9MIY7df9GgSbu-6" edge="1">
                    <mxGeometry width="100" height="100" relative="1" as="geometry">
                        <mxPoint x="260" y="200" as="sourcePoint"/>
                        <mxPoint x="265" y="170" as="targetPoint"/>
                    </mxGeometry>
                </mxCell>
                <mxCell id="1wxJ6Ee9MIY7df9GgSbu-38" value="" style="edgeStyle=none;rounded=0;orthogonalLoop=1;jettySize=auto;html=1;startArrow=none;startFill=0;endArrow=none;endFill=0;entryX=0.5;entryY=0;entryDx=0;entryDy=0;exitX=0.5;exitY=1;exitDx=0;exitDy=0;" parent="1" source="1wxJ6Ee9MIY7df9GgSbu-37" target="1wxJ6Ee9MIY7df9GgSbu-2" edge="1">
                    <mxGeometry relative="1" as="geometry">
                        <mxPoint x="560" y="100" as="sourcePoint"/>
                    </mxGeometry>
                </mxCell>
                <mxCell id="1wxJ6Ee9MIY7df9GgSbu-37" value="Date" style="ellipse;whiteSpace=wrap;html=1;align=center;rounded=0;strokeColor=#FFFFFF;" parent="1" vertex="1">
                    <mxGeometry x="440" y="60" width="100" height="40" as="geometry"/>
                </mxCell>
                <mxCell id="1wxJ6Ee9MIY7df9GgSbu-41" value="" style="edgeStyle=none;rounded=0;orthogonalLoop=1;jettySize=auto;html=1;startArrow=none;startFill=0;endArrow=none;endFill=0;entryX=0;entryY=0.5;entryDx=0;entryDy=0;" parent="1" source="1wxJ6Ee9MIY7df9GgSbu-40" target="1wxJ6Ee9MIY7df9GgSbu-10" edge="1">
                    <mxGeometry relative="1" as="geometry"/>
                </mxCell>
                <mxCell id="1wxJ6Ee9MIY7df9GgSbu-40" value="Type &lt;font style=&quot;font-size: 8px&quot; color=&quot;#999999&quot;&gt;(F/C)&lt;/font&gt;" style="ellipse;whiteSpace=wrap;html=1;align=center;rounded=0;strokeColor=#FFFFFF;" parent="1" vertex="1">
                    <mxGeometry x="190" y="250" width="100" height="40" as="geometry"/>
                </mxCell>
                <mxCell id="1wxJ6Ee9MIY7df9GgSbu-44" value="has been issued for" style="text;html=1;align=center;verticalAlign=middle;resizable=0;points=[];autosize=1;" parent="1" vertex="1">
                    <mxGeometry x="540" y="140" width="120" height="20" as="geometry"/>
                </mxCell>
                <mxCell id="1wxJ6Ee9MIY7df9GgSbu-45" value="is recipient of" style="text;html=1;align=center;verticalAlign=middle;resizable=0;points=[];autosize=1;" parent="1" vertex="1">
                    <mxGeometry x="595" y="160" width="90" height="20" as="geometry"/>
                </mxCell>
                <mxCell id="4" value="" style="fontSize=12;html=1;endArrow=ERzeroToMany;startArrow=ERoneToMany;startFill=0;endFill=1;exitX=0.75;exitY=0;exitDx=0;exitDy=0;entryX=0.5;entryY=1;entryDx=0;entryDy=0;edgeStyle=orthogonalEdgeStyle;curved=1;" parent="1" source="1wxJ6Ee9MIY7df9GgSbu-10" target="1wxJ6Ee9MIY7df9GgSbu-2" edge="1">
                    <mxGeometry width="100" height="100" relative="1" as="geometry">
                        <mxPoint x="450" y="310" as="sourcePoint"/>
                        <mxPoint x="450" y="170" as="targetPoint"/>
                    </mxGeometry>
                </mxCell>
                <mxCell id="5" value="Consists of" style="text;html=1;align=center;verticalAlign=middle;resizable=0;points=[];autosize=1;" parent="1" vertex="1">
                    <mxGeometry x="490" y="190" width="70" height="20" as="geometry"/>
                </mxCell>
                <mxCell id="6" value="Is part of" style="text;html=1;align=center;verticalAlign=middle;resizable=0;points=[];autosize=1;" parent="1" vertex="1">
                    <mxGeometry x="450" y="230" width="60" height="20" as="geometry"/>
                </mxCell>
                <mxCell id="10" value="concerns" style="text;html=1;align=center;verticalAlign=middle;resizable=0;points=[];autosize=1;" parent="1" vertex="1">
                    <mxGeometry x="220" y="180" width="60" height="20" as="geometry"/>
                </mxCell>
                <mxCell id="11" value="is the subject&lt;br&gt;of the offer" style="text;html=1;align=center;verticalAlign=middle;resizable=0;points=[];autosize=1;" parent="1" vertex="1">
                    <mxGeometry x="250" y="220" width="90" height="30" as="geometry"/>
                </mxCell>
            </root>
        </mxGraphModel>
    </diagram>
</mxfile>